<svg width="246" height="246" viewBox="0 0 246 246" fill="none" xmlns="http://www.w3.org/2000/svg">
<path d="M60.5001 85.5H43.8333C41.5333 85.5 39.6665 87.3668 39.6665 89.6668C39.6665 91.9668 41.5333 93.8336 43.8333 93.8336H60.5001C62.8001 93.8336 64.6669 91.9668 64.6669 89.6668C64.6669 87.3668 62.8001 85.5 60.5001 85.5Z" fill="#060508"/>
<path d="M193.642 96.7417C192.85 94.25 176.95 60.5585 171 56.9417C164.808 53.175 127.767 52.1667 123 52.1667C118.233 52.1667 81.1918 53.175 75 56.9417C69.05 60.55 53.15 94.25 52.3582 96.7417C51.6582 98.9335 52.8832 101.275 55.075 101.975C57.2918 102.667 59.6168 101.45 60.3082 99.2581C61.6164 95.1164 76.0664 66.9164 79.2414 64.1164C82.7668 62.4332 108.725 60.5 123 60.5C137.275 60.5 163.233 62.4332 166.467 63.9167C169.925 66.9167 184.384 95.1167 185.692 99.2585C186.259 101.034 187.9 102.167 189.667 102.167C190.084 102.167 190.509 102.109 190.934 101.975C193.117 101.275 194.342 98.9332 193.642 96.7417Z" fill="#060508"/>
<path d="M60.5 168.833C58.55 168.833 56.9832 170.2 56.5332 172.008L31.3332 165.708V164.666C31.3332 162.366 29.4664 160.5 27.1664 160.5C24.8664 160.5 23 162.367 23 164.667V181.333C23 188.225 28.6082 193.833 35.5 193.833H52.1668C59.0586 193.833 64.6668 188.225 64.6668 181.333V173C64.6668 170.7 62.8 168.833 60.5 168.833Z" fill="#060508"/>
<path d="M218.833 160.5C216.533 160.5 214.667 162.367 214.667 164.667V165.709L189.467 172.009C189.017 170.2 187.45 168.834 185.5 168.834C183.2 168.834 181.333 170.7 181.333 173V181.334C181.333 188.225 186.941 193.834 193.833 193.834H210.5C217.392 193.834 223 188.225 223 181.334V164.667C223 162.367 221.133 160.5 218.833 160.5Z" fill="#060508"/>
<path d="M202.167 85.5H185.5C183.2 85.5 181.333 87.3668 181.333 89.6668C181.333 91.9668 183.2 93.8336 185.5 93.8336H202.167C204.467 93.8336 206.333 91.9668 206.333 89.6668C206.333 87.3668 204.467 85.5 202.167 85.5Z" fill="#060508"/>
<path d="M222.675 124.808L211.308 127.083C209.908 127.3 181.925 131.333 174.833 131.333C173.816 132.141 172.9 137.491 173.008 142.5C198.408 141.3 218.183 139.708 218.5 139.683L222.992 139.075C222.983 133.55 222.9 128.833 222.675 124.808Z" fill="#060508"/>
<path d="M215.842 106.492C213.975 105.95 213 104.592 211.15 101.825L209.725 99.7418C207.233 96.2668 202.417 96.1168 197.758 95.9836C196.358 95.9418 194.142 95.8754 193.092 95.6336C192.733 95.1086 192.25 94.6668 191.667 94.3504C183.892 90.075 154.433 85.5 123 85.5C91.567 85.5 62.1084 90.075 54.3334 94.35C53.7502 94.6668 53.2666 95.1082 52.9002 95.6418C51.8502 95.8836 49.6334 95.95 48.2334 95.9918C43.5834 96.125 38.7666 96.2668 36.2752 99.7418L34.8502 101.834C33.0002 104.6 32.0252 105.959 30.1584 106.5C26.8916 107.459 25.1002 110.809 24.1084 116.9L32.3416 118.959C32.4748 118.959 59.6584 123 68.8334 123C71.9834 123 74.7584 124.2 76.8584 126.467C81.2752 131.242 81.4834 139.609 81.3752 142.867C94.7834 143.425 109.258 143.834 123 143.834C136.758 143.834 151.242 143.426 164.667 142.867C164.575 139.184 164.784 129.959 168.909 125.6C170.526 123.9 172.567 123 174.834 123C180.226 123 201.984 120.025 209.909 118.875L221.834 116.484C220.833 110.642 219.042 107.425 215.842 106.492ZM152.167 135.5H93.8334C91.5334 135.5 89.6666 133.633 89.6666 131.333C89.6666 129.033 91.5334 127.166 93.8334 127.166H152.167C154.467 127.166 156.333 129.033 156.333 131.333C156.333 133.633 154.467 135.5 152.167 135.5Z" fill="#060508"/>
<path d="M219.383 147.967C218.658 148.025 167.1 152.167 123 152.167C78.8999 152.167 27.3417 148.025 26.8331 147.992L23.2163 147.617C23.6663 156.659 25.0581 170.217 29.3745 172.517C33.8745 174.909 85.9327 177.167 123 177.167C160.066 177.167 212.124 174.909 216.616 172.509C220.949 170.2 222.341 156.55 222.783 147.509L219.383 147.967Z" fill="#060508"/>
<path d="M70.7332 132.117C70.2164 131.559 69.6664 131.334 68.8332 131.334C59 131.334 31.8664 127.292 30.7164 127.125L23.2914 125.275C23.0832 129.225 23.0082 133.85 23 139.208L27.5918 139.683C27.8586 139.708 47.625 141.291 73.025 142.5C73.1082 139.492 72.7082 134.25 70.7332 132.117Z" fill="#060508"/>
</svg>
