<svg width="246" height="246" viewBox="0 0 246 246" fill="none" xmlns="http://www.w3.org/2000/svg">
<path d="M188.275 146.826H160.691C157.752 146.823 154.951 145.592 152.962 143.431C150.987 141.296 150.005 138.425 150.258 135.529L150.502 132.965H94.4983L94.7421 135.493C95.0013 138.402 94.0198 141.285 92.0385 143.431C90.0496 145.592 87.2479 146.823 84.3097 146.826H56.7249C53.7867 146.823 50.985 145.592 48.996 143.431C47.0209 141.296 46.0394 138.425 46.294 135.529L46.5363 132.965H32.6856C31.718 132.965 30.7948 133.368 30.1385 134.079C29.4837 134.789 29.154 135.743 29.2306 136.706L34.8571 206.849C35.4199 214.049 41.4282 219.605 48.6495 219.602H196.351C203.572 219.605 209.58 214.049 210.143 206.849L215.77 136.706C215.846 135.743 215.517 134.789 214.862 134.079C214.205 133.368 213.282 132.965 212.315 132.965H198.464L198.706 135.493C198.967 138.402 197.986 141.285 196.004 143.431C194.015 145.592 191.214 146.823 188.275 146.826V146.826ZM50.002 209.206H49.7245C47.9149 209.208 46.4075 207.82 46.2587 206.018L42.793 160.965C42.6473 159.056 44.0735 157.387 45.9827 157.234C47.8919 157.081 49.565 158.502 49.7245 160.411L53.1902 205.463C53.3251 207.37 51.9066 209.036 50.002 209.206Z" fill="#060508"/>
<path d="M214.613 98.0237L213.4 83.3373C212.672 76.0117 206.449 70.4665 199.088 70.5846H45.912C38.5512 70.4665 32.3282 76.0117 31.5998 83.3373L30.3868 98.0237C30.3071 98.9883 30.6337 99.9436 31.29 100.655C31.9464 101.368 32.8696 101.775 33.8387 101.775H49.7934C51.2502 97.6096 55.1882 94.8263 59.6017 94.8432H81.4342C85.8538 94.8263 89.8026 97.6066 91.2763 101.775H153.759C155.216 97.6096 159.154 94.8263 163.566 94.8432H185.398C189.82 94.8263 193.768 97.6066 195.242 101.775H211.161C212.131 101.775 213.054 101.368 213.71 100.655C214.366 99.9436 214.693 98.9883 214.613 98.0237V98.0237Z" fill="#060508"/>
<path d="M152.755 108.706H92.2456L93.8757 126.033H151.16L152.755 108.706Z" fill="#060508"/>
<path d="M216.068 108.706H196.211L197.84 126.033H216.068C219.891 126.022 222.989 122.925 223 119.102V115.636C222.989 111.813 219.891 108.717 216.068 108.706Z" fill="#060508"/>
<path d="M28.9315 126.033H47.194L48.7889 108.706H28.9315C25.1084 108.717 22.0107 111.813 22 115.636V119.102C22.0107 122.925 25.1084 126.022 28.9315 126.033Z" fill="#060508"/>
<path d="M157.156 25.5332H87.8441C83.3954 25.5363 79.6674 28.9039 79.215 33.3311L76.5789 59.8455C76.4823 60.8192 76.8028 61.7884 77.4592 62.5153C78.1155 63.2406 79.0494 63.6532 80.0278 63.6532H90.4618C92.2406 63.6532 93.7312 62.3052 93.9091 60.5355L95.6772 42.8603H149.322L151.091 60.5355C151.268 62.3052 152.759 63.6532 154.538 63.6532H165.003C165.981 63.6532 166.915 63.2391 167.573 62.5138C168.229 61.7869 168.548 60.8162 168.45 59.8424L165.785 33.3311C165.332 28.9039 161.604 25.5363 157.156 25.5332Z" fill="#060508"/>
<path d="M84.3097 139.894C85.2942 139.907 86.2373 139.505 86.9105 138.786C87.5822 138.066 87.9226 137.099 87.8444 136.117L87.5684 132.964L86.909 126.033L85.2804 108.706L84.9338 104.927C84.756 103.132 83.2393 101.765 81.4344 101.774H59.6018C57.7954 101.765 56.2802 103.132 56.1008 104.927L55.7543 108.706L54.1257 126.033L53.4678 132.964L53.1902 136.117C53.112 137.099 53.4525 138.066 54.1241 138.786C54.7973 139.505 55.7405 139.907 56.725 139.894H84.3097ZM67.0516 122.567H73.9831C75.8969 122.567 77.4488 124.119 77.4488 126.033C77.4488 127.947 75.8969 129.499 73.9831 129.499H67.0516C65.1378 129.499 63.5859 127.947 63.5859 126.033C63.5859 124.119 65.1378 122.567 67.0516 122.567V122.567Z" fill="#060508"/>
<path d="M188.276 139.894C189.26 139.907 190.203 139.505 190.876 138.786C191.548 138.066 191.889 137.099 191.81 136.117L191.533 132.964L190.875 126.033L189.246 108.706L188.9 104.927C188.72 103.132 187.205 101.765 185.399 101.774H163.566C161.761 101.765 160.245 103.132 160.067 104.927L159.72 108.706L158.091 126.033L157.432 132.964L157.156 136.117C157.078 137.099 157.418 138.066 158.09 138.786C158.763 139.505 159.706 139.907 160.691 139.894H188.276ZM171.017 122.567H177.949C179.863 122.567 181.415 124.119 181.415 126.033C181.415 127.947 179.863 129.499 177.949 129.499H171.017C169.104 129.499 167.552 127.947 167.552 126.033C167.552 124.119 169.104 122.567 171.017 122.567V122.567Z" fill="#060508"/>
</svg>
