<svg width="246" height="246" viewBox="0 0 246 246" fill="none" xmlns="http://www.w3.org/2000/svg">
<path d="M115.868 83.3036C159.974 83.3036 195.729 74.0426 195.729 62.6187C195.729 51.1948 159.974 41.9338 115.868 41.9338C71.7626 41.9338 36.0078 51.1948 36.0078 62.6187C36.0078 74.0426 71.7626 83.3036 115.868 83.3036Z" fill="#060508"/>
<path d="M59.2782 105.3C75.2358 109.988 95.333 112.751 115.869 112.571C161.184 112.174 182.366 101.597 182.367 101.596C190.986 97.9476 195.898 93.9035 195.898 90.2214V73.444C195.898 73.2459 195.876 73.052 195.846 72.8606C193.045 77.5206 186.115 81.0131 179.729 83.3734V94.0114C179.729 95.4769 178.542 96.665 177.076 96.665C175.61 96.665 174.422 95.4769 174.422 94.0114V85.1424C172.821 85.6236 171.371 86.0153 170.176 86.3185V99.2301C170.176 101.184 168.592 102.768 166.638 102.768C164.685 102.768 163.1 101.184 163.1 99.2301V87.8459C149.847 90.3484 133.526 91.8263 115.869 91.8263C73.9065 91.8263 39.4687 83.4891 35.8892 72.8606C35.8588 73.052 35.8379 73.2463 35.8379 73.444V90.5872C35.8382 95.4864 44.6011 100.986 59.2782 105.3Z" fill="#060508"/>
<path d="M210.949 118.532C208.148 123.192 201.218 126.685 194.831 129.045V139.683C194.831 141.148 193.644 142.336 192.178 142.336C190.712 142.336 189.524 141.148 189.524 139.683V130.814C187.924 131.295 186.474 131.687 185.279 131.99V144.901C185.279 146.855 183.695 148.439 181.74 148.439C179.787 148.439 178.202 146.855 178.202 144.901V133.517C164.949 136.02 148.628 137.497 130.971 137.497C89.0087 137.497 54.5709 129.16 50.9917 118.532C50.9613 118.723 50.9404 118.917 50.9404 119.115V136.258C50.9404 141.158 59.7036 146.658 74.3804 150.971C90.338 155.66 110.435 158.422 130.971 158.242C176.286 157.845 197.468 147.268 197.469 147.268C206.088 143.619 211 139.575 211 135.893V119.116C211.001 118.918 210.979 118.724 210.949 118.532Z" fill="#060508"/>
<path d="M114.03 182.313C96.3723 182.313 80.0513 180.835 66.7979 178.333V189.717C66.7979 191.671 65.2132 193.256 63.2598 193.256C61.3057 193.256 59.7217 191.671 59.7217 189.717V176.806C58.5269 176.503 57.077 176.111 55.476 175.63V184.498C55.476 185.964 54.2882 187.152 52.8224 187.152C51.3566 187.152 50.1688 185.964 50.1688 184.498V173.861C43.7829 171.5 36.8531 168.008 34.0517 163.348C34.0212 163.539 34 163.733 34 163.931V180.708C34 184.39 38.912 188.434 47.5311 192.083C47.5319 192.084 68.7142 202.66 114.03 203.058C134.565 203.238 154.663 200.475 170.62 195.786C185.297 191.473 194.06 185.974 194.06 181.074V163.931C194.06 163.733 194.039 163.539 194.009 163.348C190.429 173.975 155.991 182.313 114.03 182.313Z" fill="#060508"/>
<path d="M118.505 120.389C97.9766 120.94 77.8716 117.806 61.9151 113.118C57.9252 111.945 54.3757 110.684 51.3174 109.372C52.8848 120.439 88.0094 129.286 131.118 129.286C175.223 129.286 210.978 120.025 210.978 108.6C210.978 104.52 206.413 100.715 198.535 97.5088V98.0388C198.535 101.906 193.12 106.173 183.679 109.962C183.678 109.962 162.906 119.196 118.505 120.389Z" fill="#060508"/>
<path d="M114.237 174.139C157.345 174.139 192.47 165.292 194.037 154.225C190.978 155.537 187.429 156.798 183.44 157.971C167.482 162.66 147.378 165.793 126.85 165.242C82.4486 164.049 61.6767 154.815 61.6767 154.815C52.2349 151.027 46.8195 146.759 46.8195 142.893V142.363C38.9423 145.568 34.376 149.373 34.376 153.455C34.3756 164.878 70.1304 174.139 114.237 174.139Z" fill="#060508"/>
</svg>
