<svg width="165" height="165" viewBox="0 0 165 165" fill="none" xmlns="http://www.w3.org/2000/svg">
<path d="M145.956 5.94702H19.0435C16.6254 5.94958 14.3072 6.91127 12.5974 8.62107C10.8876 10.3309 9.9259 12.6491 9.92334 15.0671V46.4954C9.92598 48.9134 10.8877 51.2316 12.5975 52.9414C14.3073 54.6512 16.6255 55.6129 19.0435 55.6156H26.6579L29.908 69.6177C30.0011 70.0189 30.2023 70.387 30.4897 70.682C30.7771 70.977 31.1398 71.1877 31.5384 71.2912C31.9371 71.3947 32.3564 71.3871 32.7511 71.2692C33.1457 71.1514 33.5006 70.9277 33.7771 70.6225L47.3745 55.6156H117.627L131.224 70.6225C131.501 70.9277 131.856 71.1514 132.25 71.2692C132.645 71.3871 133.064 71.3947 133.463 71.2912C133.861 71.1877 134.224 70.977 134.512 70.682C134.799 70.387 135 70.0189 135.093 69.6177L138.343 55.6156H145.958C148.376 55.6129 150.694 54.6512 152.404 52.9414C154.114 51.2316 155.075 48.9134 155.078 46.4954V15.0668C155.075 12.6486 154.113 10.3302 152.403 8.62039C150.693 6.91061 148.374 5.94915 145.956 5.94702V5.94702ZM49.3409 17.4758H102.306C102.905 17.4758 103.478 17.7134 103.901 18.1365C104.324 18.5595 104.562 19.1333 104.562 19.7316C104.562 20.3299 104.324 20.9037 103.901 21.3267C103.478 21.7498 102.905 21.9875 102.306 21.9875H49.3422C48.7439 21.9875 48.1701 21.7498 47.7471 21.3267C47.324 20.9037 47.0864 20.3299 47.0864 19.7316C47.0864 19.1333 47.324 18.5595 47.7471 18.1365C48.1701 17.7134 48.7439 17.4758 49.3422 17.4758H49.3409ZM119.746 28.9484C120.344 28.9484 120.918 29.1861 121.341 29.6091C121.764 30.0322 122.002 30.606 122.002 31.2043C122.002 31.8026 121.764 32.3763 121.341 32.7994C120.918 33.2225 120.344 33.4601 119.746 33.4601H82.3593C81.761 33.4601 81.1872 33.2225 80.7642 32.7994C80.3411 32.3763 80.1034 31.8026 80.1034 31.2043C80.1034 30.606 80.3411 30.0322 80.7642 29.6091C81.1872 29.1861 81.761 28.9484 82.3593 28.9484H119.746ZM23.4582 17.4758H41.8473C42.4456 17.4758 43.0194 17.7134 43.4424 18.1365C43.8655 18.5595 44.1032 19.1333 44.1032 19.7316C44.1032 20.3299 43.8655 20.9037 43.4424 21.3267C43.0194 21.7498 42.4456 21.9875 41.8473 21.9875H23.4582C22.8599 21.9875 22.2861 21.7498 21.863 21.3267C21.44 20.9037 21.2023 20.3299 21.2023 19.7316C21.2023 19.1333 21.44 18.5595 21.863 18.1365C22.2861 17.7134 22.8599 17.4758 23.4582 17.4758V17.4758ZM43.7045 44.9328H23.4582C22.8599 44.9328 22.2861 44.6951 21.863 44.2721C21.44 43.849 21.2023 43.2752 21.2023 42.6769C21.2023 42.0786 21.44 41.5048 21.863 41.0818C22.2861 40.6587 22.8599 40.4211 23.4582 40.4211H43.7045C44.3028 40.4211 44.8766 40.6587 45.2996 41.0818C45.7227 41.5048 45.9604 42.0786 45.9604 42.6769C45.9604 43.2752 45.7227 43.849 45.2996 44.2721C44.8766 44.6951 44.3028 44.9328 43.7045 44.9328ZM23.4582 33.4601C22.8599 33.4601 22.2861 33.2225 21.863 32.7994C21.44 32.3763 21.2023 31.8026 21.2023 31.2043C21.2023 30.606 21.44 30.0322 21.863 29.6091C22.2861 29.1861 22.8599 28.9484 23.4582 28.9484H74.8528C75.4511 28.9484 76.0249 29.1861 76.4479 29.6091C76.871 30.0322 77.1086 30.606 77.1086 31.2043C77.1086 31.8026 76.871 32.3763 76.4479 32.7994C76.0249 33.2225 75.4511 33.4601 74.8528 33.4601H23.4582ZM68.1532 44.9328H52.7686C52.1703 44.9328 51.5965 44.6951 51.1734 44.2721C50.7504 43.849 50.5127 43.2752 50.5127 42.6769C50.5127 42.0786 50.7504 41.5048 51.1734 41.0818C51.5965 40.6587 52.1703 40.4211 52.7686 40.4211H68.1532C68.7515 40.4211 69.3253 40.6587 69.7483 41.0818C70.1714 41.5048 70.4091 42.0786 70.4091 42.6769C70.4091 43.2752 70.1714 43.849 69.7483 44.2721C69.3253 44.6951 68.7515 44.9328 68.1532 44.9328V44.9328ZM135.313 44.9328H75.2875C74.6892 44.9328 74.1154 44.6951 73.6924 44.2721C73.2693 43.849 73.0316 43.2752 73.0316 42.6769C73.0316 42.0786 73.2693 41.5048 73.6924 41.0818C74.1154 40.6587 74.6892 40.4211 75.2875 40.4211H135.312C135.91 40.4211 136.484 40.6587 136.907 41.0818C137.33 41.5048 137.568 42.0786 137.568 42.6769C137.568 43.2752 137.33 43.849 136.907 44.2721C136.484 44.6951 135.91 44.9328 135.312 44.9328H135.313ZM135.313 33.4601H127.301C126.703 33.4601 126.129 33.2225 125.706 32.7994C125.283 32.3763 125.045 31.8026 125.045 31.2043C125.045 30.606 125.283 30.0322 125.706 29.6091C126.129 29.1861 126.703 28.9484 127.301 28.9484H135.312C135.91 28.9484 136.484 29.1861 136.907 29.6091C137.33 30.0322 137.568 30.606 137.568 31.2043C137.568 31.8026 137.33 32.3763 136.907 32.7994C136.484 33.2225 135.91 33.4601 135.312 33.4601H135.313ZM135.313 21.9875H109.803C109.205 21.9875 108.631 21.7498 108.208 21.3267C107.785 20.9037 107.547 20.3299 107.547 19.7316C107.547 19.1333 107.785 18.5595 108.208 18.1365C108.631 17.7134 109.205 17.4758 109.803 17.4758H135.313C135.912 17.4758 136.485 17.7134 136.908 18.1365C137.332 18.5595 137.569 19.1333 137.569 19.7316C137.569 20.3299 137.332 20.9037 136.908 21.3267C136.485 21.7498 135.912 21.9875 135.313 21.9875V21.9875Z" fill="#060508"/>
<path d="M98.7384 106.283C98.7171 106.684 98.6994 109.872 98.6926 112.672C98.692 112.945 98.6418 113.216 98.5444 113.471L92.9814 128.042H100.961C101.56 128.042 102.133 128.28 102.557 128.703C102.98 129.126 103.217 129.7 103.217 130.298V137.652H111.57C112.163 137.652 112.732 137.886 113.154 138.302C113.576 138.718 113.817 139.283 113.826 139.876L113.852 141.674L119.722 141.636C121.91 141.613 124 140.723 125.533 139.161C127.065 137.598 127.915 135.491 127.894 133.303L127.872 130.945C125.312 130.361 123.022 128.935 121.368 126.895C119.715 124.855 118.794 122.319 118.752 119.694L118.736 118.513C118.7 115.79 119.614 113.14 121.322 111.018C123.03 108.897 125.424 107.437 128.092 106.891V78.8193C120.597 78.7126 113.353 81.5138 107.879 86.6347C102.406 91.7557 99.1298 98.798 98.7384 106.283V106.283Z" fill="#060508"/>
<path d="M99.1049 146.157L109.403 146L109.347 142.165H99.0344C98.5084 142.177 98.0087 142.397 97.6439 142.776C97.279 143.156 97.0784 143.663 97.0856 144.189C97.0941 144.714 97.308 145.214 97.6814 145.582C98.0548 145.95 98.5577 146.157 99.0821 146.158L99.1049 146.157Z" fill="#060508"/>
<path d="M132.604 79.2451V106.863C135.254 107.369 137.649 108.772 139.385 110.838C141.121 112.903 142.092 115.503 142.135 118.201L142.151 119.381C142.189 122.176 141.225 124.892 139.434 127.037C137.643 129.183 135.143 130.617 132.386 131.079L132.406 133.264C132.437 136.499 131.239 139.625 129.052 142.01C126.866 144.395 123.856 145.86 120.63 146.11C121.424 146.559 122.119 147.165 122.672 147.891C123.225 148.617 123.625 149.448 123.847 150.334L126.038 159.053H150.574C149.22 153.302 146.481 140.087 147.359 130.642C147.705 126.922 150.836 119.105 151.192 118.228C151.219 118.16 151.249 118.095 151.283 118.03C153.402 113.994 154.457 109.486 154.35 104.929C154.243 100.373 152.977 95.9189 150.671 91.9875C148.766 88.6782 146.163 85.8239 143.043 83.6233C139.923 81.4226 136.36 79.9286 132.604 79.2451V79.2451Z" fill="#060508"/>
<path d="M123.248 118.454L123.264 119.634C123.293 121.522 124.063 123.323 125.407 124.649C126.751 125.975 128.562 126.72 130.45 126.724H130.518C131.464 126.716 132.4 126.52 133.271 126.149C134.141 125.778 134.93 125.238 135.592 124.561C136.254 123.884 136.775 123.083 137.127 122.204C137.478 121.325 137.652 120.386 137.64 119.439L137.624 118.259C137.594 116.371 136.824 114.571 135.48 113.245C134.136 111.919 132.325 111.174 130.437 111.169H130.37C129.423 111.178 128.488 111.373 127.617 111.745C126.746 112.116 125.957 112.655 125.295 113.332C124.634 114.009 124.112 114.81 123.761 115.689C123.409 116.568 123.235 117.508 123.248 118.454V118.454Z" fill="#060508"/>
<path d="M66.3076 112.672C66.3008 109.872 66.2831 106.685 66.2624 106.295C65.8738 98.8662 62.6446 91.8712 57.2428 86.7568C51.8411 81.6424 44.6802 78.7999 37.2415 78.8175C37.1309 78.8175 37.0207 78.8175 36.9099 78.8194C36.6583 78.822 36.4074 78.8279 36.1574 78.8371C31.7016 78.9946 27.3595 80.2845 23.5405 82.5853C19.7216 84.8862 16.5517 88.122 14.33 91.9875C12.0243 95.9189 10.7581 100.373 10.651 104.929C10.5438 109.486 11.5993 113.994 13.7177 118.03C13.7515 118.094 13.7821 118.159 13.8092 118.228C14.1637 119.106 17.2955 126.922 17.6419 130.642C18.5214 140.087 15.7805 153.302 14.4273 159.053H38.962L41.1554 150.333C41.5199 148.874 42.3626 147.578 43.549 146.653C44.7354 145.728 46.1974 145.226 47.7019 145.228H47.7306C53.4398 145.253 56.54 145.271 56.9451 145.283C57.5741 145.301 58.2003 145.193 58.7867 144.964C59.373 144.736 59.9075 144.392 60.3587 143.953C60.8098 143.515 61.1684 142.99 61.4131 142.41C61.6579 141.831 61.7839 141.208 61.7836 140.578V130.298C61.7836 129.7 62.0213 129.126 62.4443 128.703C62.8674 128.28 63.4412 128.042 64.0395 128.042H72.0194L66.4565 113.471C66.359 113.216 66.3085 112.945 66.3076 112.672V112.672Z" fill="#060508"/>
</svg>
