<svg width="246" height="246" viewBox="0 0 246 246" fill="none" xmlns="http://www.w3.org/2000/svg">
<path d="M141.8 79.1333H104.2C103.369 79.1333 102.572 79.4634 101.984 80.051C101.397 80.6386 101.066 81.4356 101.066 82.2666V141.424C101.063 143.12 101.396 144.799 102.045 146.366C102.694 147.932 103.647 149.355 104.848 150.551C106.635 152.327 108.051 154.44 109.016 156.768C109.98 159.095 110.473 161.59 110.466 164.109V166.867H116.733C117.564 166.867 118.361 167.197 118.949 167.784C119.536 168.372 119.866 169.169 119.866 170C119.866 170.831 119.536 171.628 118.949 172.216C118.361 172.803 117.564 173.133 116.733 173.133H110.466V179.4H116.733C117.564 179.4 118.361 179.73 118.949 180.318C119.536 180.905 119.866 181.702 119.866 182.533C119.866 183.364 119.536 184.161 118.949 184.749C118.361 185.337 117.564 185.667 116.733 185.667H110.466V191.933C110.466 192.764 110.797 193.561 111.384 194.149C111.972 194.737 112.769 195.067 113.6 195.067H132.4C133.231 195.067 134.028 194.737 134.615 194.149C135.203 193.561 135.533 192.764 135.533 191.933V185.667H129.266C128.435 185.667 127.638 185.337 127.051 184.749C126.463 184.161 126.133 183.364 126.133 182.533C126.133 181.702 126.463 180.905 127.051 180.318C127.638 179.73 128.435 179.4 129.266 179.4H135.533V173.133H129.266C128.435 173.133 127.638 172.803 127.051 172.216C126.463 171.628 126.133 170.831 126.133 170C126.133 169.169 126.463 168.372 127.051 167.784C127.638 167.197 128.435 166.867 129.266 166.867H135.533V164.109C135.526 161.59 136.02 159.095 136.984 156.768C137.948 154.44 139.365 152.327 141.151 150.551C142.353 149.355 143.306 147.932 143.955 146.366C144.604 144.799 144.936 143.12 144.933 141.424V82.2666C144.933 81.4356 144.603 80.6386 144.015 80.051C143.428 79.4634 142.631 79.1333 141.8 79.1333V79.1333ZM138.666 129.267C138.666 131.76 137.676 134.151 135.913 135.913C134.15 137.676 131.759 138.667 129.266 138.667H116.733C114.24 138.667 111.849 137.676 110.086 135.913C108.323 134.151 107.333 131.76 107.333 129.267V97.9333C107.333 95.4403 108.323 93.0493 110.086 91.2865C111.849 89.5237 114.24 88.5333 116.733 88.5333H129.266C131.759 88.5333 134.15 89.5237 135.913 91.2865C137.676 93.0493 138.666 95.4403 138.666 97.9333V129.267Z" fill="#060508"/>
<path d="M129.267 94.8H116.733C115.003 94.8 113.6 96.2029 113.6 97.9334V129.267C113.6 130.997 115.003 132.4 116.733 132.4H129.267C130.997 132.4 132.4 130.997 132.4 129.267V97.9334C132.4 96.2029 130.997 94.8 129.267 94.8Z" fill="#060508"/>
<path d="M119.867 201.333H126.136V210.733H119.867V201.333Z" fill="#060508"/>
<path d="M126.133 38.3999C126.133 37.5689 125.803 36.7719 125.216 36.1843C124.628 35.5967 123.831 35.2666 123 35.2666C122.169 35.2666 121.372 35.5967 120.784 36.1843C120.197 36.7719 119.867 37.5689 119.867 38.3999V60.3333H126.133V38.3999Z" fill="#060508"/>
<path d="M135.533 69.7334C135.533 68.9024 135.203 68.1054 134.616 67.5178C134.028 66.9302 133.231 66.6001 132.4 66.6001H113.6C112.769 66.6001 111.972 66.9302 111.385 67.5178C110.797 68.1054 110.467 68.9024 110.467 69.7334V72.8668H135.533V69.7334Z" fill="#060508"/>
<path d="M54.0669 201.333H60.3367V210.733H54.0669V201.333Z" fill="#060508"/>
<path d="M69.7337 69.7334C69.7337 68.9024 69.4035 68.1054 68.8159 67.5178C68.2283 66.9302 67.4313 66.6001 66.6003 66.6001H47.8003C46.9693 66.6001 46.1723 66.9302 45.5847 67.5178C44.9971 68.1054 44.667 68.9024 44.667 69.7334V72.8668H69.7337V69.7334Z" fill="#060508"/>
<path d="M63.4665 94.8H50.9331C49.2026 94.8 47.7998 96.2029 47.7998 97.9334V129.267C47.7998 130.997 49.2026 132.4 50.9331 132.4H63.4665C65.197 132.4 66.5998 130.997 66.5998 129.267V97.9334C66.5998 96.2029 65.197 94.8 63.4665 94.8Z" fill="#060508"/>
<path d="M60.3336 38.3999C60.3336 37.5689 60.0034 36.7719 59.4158 36.1843C58.8282 35.5967 58.0312 35.2666 57.2002 35.2666C56.3692 35.2666 55.5722 35.5967 54.9846 36.1843C54.397 36.7719 54.0669 37.5689 54.0669 38.3999V60.3333H60.3336V38.3999Z" fill="#060508"/>
<path d="M76 79.1333H38.4C37.5689 79.1333 36.772 79.4634 36.1844 80.051C35.5967 80.6386 35.2666 81.4356 35.2666 82.2666V141.424C35.2634 143.12 35.596 144.799 36.2451 146.366C36.8942 147.932 37.847 149.355 39.0486 150.551C40.835 152.327 42.2514 154.44 43.2158 156.768C44.1801 159.095 44.6733 161.59 44.6666 164.109V166.867H50.9333C51.7643 166.867 52.5613 167.197 53.1489 167.784C53.7365 168.372 54.0666 169.169 54.0666 170C54.0666 170.831 53.7365 171.628 53.1489 172.216C52.5613 172.803 51.7643 173.133 50.9333 173.133H44.6666V179.4H50.9333C51.7643 179.4 52.5613 179.73 53.1489 180.318C53.7365 180.905 54.0666 181.702 54.0666 182.533C54.0666 183.364 53.7365 184.161 53.1489 184.749C52.5613 185.337 51.7643 185.667 50.9333 185.667H44.6666V191.933C44.6666 192.764 44.9967 193.561 45.5844 194.149C46.172 194.737 46.9689 195.067 47.8 195.067H66.6C67.431 195.067 68.2279 194.737 68.8156 194.149C69.4032 193.561 69.7333 192.764 69.7333 191.933V185.667H63.4666C62.6356 185.667 61.8386 185.337 61.251 184.749C60.6634 184.161 60.3333 183.364 60.3333 182.533C60.3333 181.702 60.6634 180.905 61.251 180.318C61.8386 179.73 62.6356 179.4 63.4666 179.4H69.7333V173.133H63.4666C62.6356 173.133 61.8386 172.803 61.251 172.216C60.6634 171.628 60.3333 170.831 60.3333 170C60.3333 169.169 60.6634 168.372 61.251 167.784C61.8386 167.197 62.6356 166.867 63.4666 166.867H69.7333V164.109C69.7267 161.59 70.2198 159.095 71.1841 156.768C72.1485 154.44 73.5649 152.327 75.3514 150.551C76.5529 149.355 77.5058 147.932 78.1549 146.366C78.804 144.799 79.1365 143.12 79.1333 141.424V82.2666C79.1333 81.4356 78.8032 80.6386 78.2156 80.051C77.6279 79.4634 76.831 79.1333 76 79.1333V79.1333ZM72.8666 129.267C72.8666 131.76 71.8763 134.151 70.1134 135.913C68.3506 137.676 65.9597 138.667 63.4666 138.667H50.9333C48.4403 138.667 46.0493 137.676 44.2865 135.913C42.5236 134.151 41.5333 131.76 41.5333 129.267V97.9333C41.5333 95.4403 42.5236 93.0493 44.2865 91.2865C46.0493 89.5237 48.4403 88.5333 50.9333 88.5333H63.4666C65.9597 88.5333 68.3506 89.5237 70.1134 91.2865C71.8763 93.0493 72.8666 95.4403 72.8666 97.9333V129.267Z" fill="#060508"/>
<path d="M201.333 69.7334C201.333 68.9024 201.003 68.1054 200.416 67.5178C199.828 66.9302 199.031 66.6001 198.2 66.6001H179.4C178.569 66.6001 177.772 66.9302 177.184 67.5178C176.597 68.1054 176.267 68.9024 176.267 69.7334V72.8668H201.333V69.7334Z" fill="#060508"/>
<path d="M191.934 38.3999C191.934 37.5689 191.604 36.7719 191.016 36.1843C190.428 35.5967 189.631 35.2666 188.8 35.2666C187.969 35.2666 187.172 35.5967 186.585 36.1843C185.997 36.7719 185.667 37.5689 185.667 38.3999V60.3333H191.934V38.3999Z" fill="#060508"/>
<path d="M195.067 94.8H182.533C180.803 94.8 179.4 96.2029 179.4 97.9334V129.267C179.4 130.997 180.803 132.4 182.533 132.4H195.067C196.797 132.4 198.2 130.997 198.2 129.267V97.9334C198.2 96.2029 196.797 94.8 195.067 94.8Z" fill="#060508"/>
<path d="M207.6 79.1333H170C169.169 79.1333 168.372 79.4634 167.784 80.051C167.197 80.6386 166.867 81.4356 166.867 82.2666V141.424C166.864 143.12 167.196 144.799 167.845 146.366C168.494 147.932 169.447 149.355 170.649 150.551C172.435 152.327 173.852 154.44 174.816 156.768C175.78 159.095 176.273 161.59 176.267 164.109V166.867H182.533C183.364 166.867 184.161 167.197 184.749 167.784C185.337 168.372 185.667 169.169 185.667 170C185.667 170.831 185.337 171.628 184.749 172.216C184.161 172.803 183.364 173.133 182.533 173.133H176.267V179.4H182.533C183.364 179.4 184.161 179.73 184.749 180.318C185.337 180.905 185.667 181.702 185.667 182.533C185.667 183.364 185.337 184.161 184.749 184.749C184.161 185.337 183.364 185.667 182.533 185.667H176.267V191.933C176.267 192.764 176.597 193.561 177.184 194.149C177.772 194.737 178.569 195.067 179.4 195.067H198.2C199.031 195.067 199.828 194.737 200.416 194.149C201.003 193.561 201.333 192.764 201.333 191.933V185.667H195.067C194.236 185.667 193.439 185.337 192.851 184.749C192.264 184.161 191.933 183.364 191.933 182.533C191.933 181.702 192.264 180.905 192.851 180.318C193.439 179.73 194.236 179.4 195.067 179.4H201.333V173.133H195.067C194.236 173.133 193.439 172.803 192.851 172.216C192.264 171.628 191.933 170.831 191.933 170C191.933 169.169 192.264 168.372 192.851 167.784C193.439 167.197 194.236 166.867 195.067 166.867H201.333V164.109C201.327 161.59 201.82 159.095 202.784 156.768C203.749 154.44 205.165 152.327 206.951 150.551C208.153 149.355 209.106 147.932 209.755 146.366C210.404 144.799 210.737 143.12 210.733 141.424V82.2666C210.733 81.4356 210.403 80.6386 209.816 80.051C209.228 79.4634 208.431 79.1333 207.6 79.1333V79.1333ZM204.467 129.267C204.467 131.76 203.476 134.151 201.714 135.913C199.951 137.676 197.56 138.667 195.067 138.667H182.533C180.04 138.667 177.649 137.676 175.887 135.913C174.124 134.151 173.133 131.76 173.133 129.267V97.9333C173.133 95.4403 174.124 93.0493 175.887 91.2865C177.649 89.5237 180.04 88.5333 182.533 88.5333H195.067C197.56 88.5333 199.951 89.5237 201.714 91.2865C203.476 93.0493 204.467 95.4403 204.467 97.9333V129.267Z" fill="#060508"/>
<path d="M185.667 201.333H191.937V210.733H185.667V201.333Z" fill="#060508"/>
</svg>
