<svg width="144" height="144" viewBox="0 0 144 144" fill="none" xmlns="http://www.w3.org/2000/svg">
<path d="M58.5 90H85.5V76.5H58.5V90ZM78.75 81H83.25V85.5H78.75V81ZM63 81H67.5V85.5H63V81Z" fill="#060508"/>
<path d="M72 38.25C53.3903 38.25 38.25 53.3903 38.25 72C38.25 90.6097 53.3903 105.75 72 105.75C90.6097 105.75 105.75 90.6097 105.75 72C105.75 53.3903 90.6097 38.25 72 38.25ZM90 92.25C90 93.492 88.9942 94.5 87.75 94.5H56.25C55.0058 94.5 54 93.492 54 92.25V74.25C54 73.008 55.0058 72 56.25 72H58.5V63C58.5 55.5547 64.5547 49.5 72 49.5C79.4453 49.5 85.5 55.5547 85.5 63V72H87.75C88.9942 72 90 73.008 90 74.25V92.25Z" fill="#060508"/>
<path d="M81 63C81 58.0365 76.9635 54 72 54C67.0365 54 63 58.0365 63 63V72H81V63Z" fill="#060508"/>
<path d="M73.5908 8.43751L72 7.28101L70.4092 8.43751C56.3467 18.6683 39.8227 24.2753 22.5 24.7208V65.1195C22.5 94.4078 39.573 121.498 65.9947 134.132L72 137.007L78.0052 134.134C104.427 121.498 121.5 94.4078 121.5 65.1195V24.7208C104.177 24.2753 87.6533 18.6683 73.5908 8.43751V8.43751ZM72 110.25C50.9085 110.25 33.75 93.0915 33.75 72C33.75 50.9085 50.9085 33.75 72 33.75C93.0915 33.75 110.25 50.9085 110.25 72C110.25 93.0915 93.0915 110.25 72 110.25Z" fill="#060508"/>
</svg>
